Coordinates
version=1
nRows=19
nColumns=34
inDegrees=yes

Units are S.I. units (second, meters, Newtons, ...)
If the header above contains a line with 'inDegrees', this indicates whether rotational values are in degrees (yes) or radians (no).

endheader
time	pelvis_tilt	pelvis_list	pelvis_rotation	pelvis_tx	pelvis_ty	pelvis_tz	hip_flexion_r	hip_adduction_r	hip_rotation_r	knee_angle_r	ankle_angle_r	subtalar_angle_r	mtp_angle_r	hip_flexion_l	hip_adduction_l	hip_rotation_l	knee_angle_l	ankle_angle_l	subtalar_angle_l	mtp_angle_l	lumbar_extension	lumbar_bending	lumbar_rotation	arm_flex_r	arm_add_r	arm_rot_r	elbow_flex_r	pro_sup_r	arm_flex_l	arm_add_l	arm_rot_l	elbow_flex_l	pro_sup_l
      1.73333330	    -12.60562477	      1.36120503	      3.30266000	      1.71985301	      0.96171180	     -0.52988279	     22.81769600	      5.83714742	      3.31890214	     42.50887824	     17.19818162	    -29.07263573	      0.00000000	     17.22428536	      2.61906658	      1.52249528	     68.09203956	     -1.67273186	    -33.71345538	      0.00000000	     -0.80809926	      1.85625419	    -12.09088164	    -31.20630149	    -15.43802213	     -0.55355986	     82.27642410	     94.80020999	    -13.87592326	    -10.37280707	      4.83764193	    110.91652555	     98.70184134
      1.74166670	    -12.57863376	      1.64301049	      3.69589547	      1.72205396	      0.96553987	     -0.53110516	     22.28413462	      5.28793639	      3.15921178	     41.52308994	     15.06460793	    -29.80004179	      0.00000000	     16.99032581	      3.13501646	      1.72617621	     67.30420448	     -0.67347930	    -32.90706800	      0.00000000	     -0.56902342	      1.29579436	    -12.11207999	    -31.38628369	    -15.03536880	     -0.54461764	     82.56048600	     94.60555919	    -14.32005741	    -10.43721659	      5.15034181	    110.78651050	     98.41752382
      1.75000000	    -12.69545935	      1.87030327	      3.91746566	      1.73032532	      0.96434011	     -0.53211280	     21.70182527	      4.91267674	      2.96106560	     40.79727028	     13.75839582	    -30.22641469	      0.00000000	     16.70983230	      3.49657646	      1.59042495	     66.73680803	      1.31253257	    -32.70004710	      0.00000000	      0.18751248	      0.86941678	    -11.79553783	    -32.40546011	    -14.85997918	     -0.75030675	     83.46265856	     94.43101697	    -15.21072300	    -10.24304566	      5.09765580	    110.98955324	     98.13438154
      1.75833330	    -12.82739277	      1.85357299	      4.34192833	      1.72392162	      0.97344192	     -0.53098471	     21.32966784	      4.85160638	      2.87099439	     39.27923917	     13.50775705	    -30.17971751	      0.00000000	     16.99991879	      3.38486281	      1.51200610	     66.29750084	      0.86245791	    -32.44541970	      0.00000000	      0.46477479	      0.58840928	    -11.63305200	    -32.48284848	    -14.53105094	     -0.65633136	     83.62813331	     94.41292982	    -15.60673571	    -10.24109357	      5.21371407	    111.02981513	     98.10039615
      1.76666670	    -12.88833548	      1.70264273	      4.80335121	      1.72660106	      0.97345477	     -0.53155388	     20.75523126	      4.97452823	      2.84403695	     38.04006833	     12.55487414	    -30.15432363	      0.00000000	     17.21340023	      3.30027667	      1.85348682	     66.30888928	     -0.03700249	    -32.61198552	      0.00000000	      0.98364177	      0.69519412	    -11.70733537	    -33.33003442	    -14.47295221	     -0.96609649	     84.76603239	     94.24118559	    -16.07783840	    -10.24482212	      5.11651052	    111.23168665	     97.83262628
      1.77500000	    -13.05667011	      1.63751277	      5.11629389	      1.72990449	      0.97810456	     -0.53214468	     20.02991502	      5.07590489	      3.15959000	     36.38594838	     12.60660308	    -29.95324103	      0.00000000	     17.11506876	      3.10467440	      1.83556445	     66.25092402	     -1.10189887	    -31.91110741	      0.00000000	      1.59041900	      0.46363787	    -11.64811842	    -33.71177368	    -14.28928689	     -0.87422171	     84.97062161	     94.21364721	    -16.15626954	    -10.33781190	      5.05615596	    111.44773099	     97.77113955
      1.78333330	    -12.95999920	      1.47883901	      5.20474880	      1.73293430	      0.97991199	     -0.53213658	     19.13712327	      5.18255462	      3.19198426	     35.17275476	     12.00915559	    -29.24177322	      0.00000000	     16.85249310	      3.05036694	      2.03405036	     66.08023253	     -2.84108946	    -32.10017488	      0.00000000	      1.86057047	      0.56009844	    -11.32193722	    -34.40155769	    -14.34538655	     -0.98794305	     86.02899117	     94.02967030	    -16.83600809	    -10.31191654	      5.26945875	    112.02811875	     97.50081694
      1.79166670	    -13.15937490	      1.64002015	      5.46946623	      1.73643040	      0.98689781	     -0.53246571	     18.19332773	      4.84140661	      2.91052229	     33.61210732	     10.74708715	    -28.59560218	      0.00000000	     16.31780071	      3.31897494	      2.15581811	     65.14383781	     -2.27147338	    -32.27961378	      0.00000000	      2.54179380	      0.15679407	    -11.07029232	    -34.80430535	    -14.13957287	     -0.89537663	     85.95612935	     93.98556981	    -17.72833981	    -10.24231887	      5.50470749	    111.93646624	     97.43870780
      1.80000000	    -13.10938297	      1.53028469	      5.77084844	      1.73171711	      0.99139985	     -0.53265253	     17.43814747	      4.86061070	      2.85859459	     31.79336313	     10.01640310	    -28.50569806	      0.00000000	     16.23142194	      3.29956080	      2.46788531	     64.65612188	     -2.67655602	    -31.69839235	      0.00000000	      2.45639837	      0.16636462	    -10.83349559	    -34.48773448	    -13.99733759	     -0.82618191	     85.70949134	     93.87974462	    -18.22371366	    -10.11171565	      5.86682576	    111.86805802	     97.31227314
      1.80833330	    -13.13488193	      1.55565793	      5.76993323	      1.73521512	      0.99315815	     -0.53321726	     16.61133710	      4.83529654	      3.23835126	     30.14065248	      9.61766262	    -28.01778730	      0.00000000	     16.13805663	      3.44583457	      2.49653932	     64.48787665	     -2.89661309	    -31.36023295	      0.00000000	      2.79725482	      0.03415886	    -10.50521095	    -34.48285365	    -13.88304894	     -0.65880598	     85.66703697	     93.84790014	    -18.70563157	     -9.88197547	      6.03009473	    111.91816270	     97.26707021
      1.81666670	    -12.60179939	      1.49957804	      5.56406637	      1.73971410	      0.99545812	     -0.53336407	     15.27952718	      4.98370045	      3.43701404	     28.65481287	      9.66210746	    -27.46171736	      0.00000000	     15.27141547	      3.22498736	      2.29297848	     64.25390827	     -3.27102039	    -31.21487652	      0.00000000	      2.35122889	      0.10921128	     -9.96264658	    -34.11001750	    -14.00813527	     -0.15224296	     85.01414527	     93.67684497	    -19.01484353	     -9.60757630	      6.03039615	    111.70578135	     97.01747663
      1.82500000	    -12.31206546	      1.54118818	      5.23101132	      1.74135502	      0.99939621	     -0.53384708	     13.90729398	      4.86982763	      3.62839623	     26.74421948	      9.48667940	    -26.68326073	      0.00000000	     14.84417036	      3.31119340	      2.21545815	     64.01737668	     -4.39267463	    -31.07372020	      0.00000000	      2.36146709	      0.05673238	     -9.33361912	    -33.83664813	    -14.22126354	      0.27097892	     84.85967161	     93.51485389	    -19.46864810	     -9.20684900	      5.98790091	    111.39324532	     96.79563035
      1.83333330	    -12.41628030	      1.59962959	      4.92930247	      1.73964761	      1.00023482	     -0.53407058	     13.11753959	      4.67637665	      3.53741140	     25.35415982	      9.09707996	    -26.25441072	      0.00000000	     15.06537191	      3.46877864	      2.08773750	     64.00078826	     -4.50702740	    -31.03780939	      0.00000000	      2.62781355	     -0.04449172	     -8.71488172	    -33.63086528	    -14.31203124	      0.39235993	     84.95185902	     93.48475588	    -19.93052438	     -8.95242490	      6.07509577	    111.38921786	     96.75340349
      1.84166670	    -12.39678242	      1.58438009	      4.55401505	      1.74023185	      0.99900967	     -0.53391857	     12.54223541	      4.66146149	      3.57093391	     24.34069651	      8.79571915	    -25.76727561	      0.00000000	     15.15833063	      3.40121269	      1.78366823	     64.00608074	     -4.30159139	    -31.30238806	      0.00000000	      2.74419406	     -0.03475357	     -8.04571940	    -33.46459098	    -14.47333388	      0.59223657	     85.09004514	     93.45766121	    -20.37292972	     -8.58004068	      6.15989394	    111.30027836	     96.70605863
      1.85000000	    -12.24791821	      1.45163562	      4.04541903	      1.74051679	      1.00158568	     -0.53389668	     11.92796381	      4.81649806	      3.67256719	     23.44337575	      8.52584224	    -25.16649610	      0.00000000	     15.17775302	      3.04985154	      1.18148715	     64.02715530	     -5.29984668	    -31.77259664	      0.00000000	      2.60473587	      0.16442171	     -7.11443155	    -33.22009734	    -14.93600450	      1.02153220	     85.31574227	     93.38282757	    -20.70570508	     -8.10791559	      6.09735947	    110.82487503	     96.57494536
      1.85833330	    -12.22405790	      1.30281871	      3.94784809	      1.73991309	      1.00086250	     -0.53384903	     11.72100218	      5.00112042	      3.67061835	     22.90239245	      8.49697227	    -24.86851065	      0.00000000	     15.13795869	      2.80329561	      0.89066286	     64.25369631	     -4.88450677	    -32.43723570	      0.00000000	      2.68200638	      0.22356521	     -6.65382940	    -32.88377910	    -14.93295428	      1.19102944	     85.53533598	     93.35864818	    -21.12976948	     -7.93022297	      6.28101601	    110.55902978	     96.54105690
      1.86666670	    -12.19707826	      0.95532369	      3.76515980	      1.73996429	      0.99932661	     -0.53389467	     11.64181239	      5.37557782	      3.74856042	     22.56507308	      8.47735290	    -24.55066614	      0.00000000	     15.14877934	      2.34219859	      0.60515365	     64.55073184	     -4.82386545	    -32.98802278	      0.00000000	      2.68699036	      0.58130376	     -6.06953337	    -32.55160703	    -15.26778169	      1.41246141	     85.95987639	     93.33302332	    -21.35821134	     -7.73675120	      6.46917037	    110.23072953	     96.49616244
      1.87500000	    -12.31042887	      0.94307994	      3.82939442	      1.74066142	      1.00091356	     -0.53377488	     11.44851835	      5.32202989	      3.65272368	     21.89499120	      8.54986668	    -24.53641624	      0.00000000	     15.36934539	      2.34058655	      0.64503488	     64.52257323	     -4.97138486	    -32.95181391	      0.00000000	      2.74953538	      0.46155245	     -5.59371773	    -32.16718400	    -15.35006539	      1.43309877	     86.17678841	     93.32781568	    -21.44721325	     -7.76070081	      6.43235830	    110.12330454	     96.48199937
      1.88333330	    -12.36314438	      0.89929018	      3.66916282	      1.73910940	      1.00155485	     -0.53335502	     11.16943475	      5.27298055	      3.44014400	     21.26023668	      8.26917424	    -23.99443491	      0.00000000	     15.57968020	      2.09975866	      0.23481184	     64.39844194	     -7.15228313	    -33.77074095	      0.00000000	      2.97212946	      0.55025274	     -4.65229968	    -31.97843910	    -15.79457967	      2.20826271	     86.62892059	     93.26467096	    -21.01501257	     -7.68927911	      6.65168680	    108.82443489	     96.32248043
